HIERARCHY
ROOT hip
{
  OFFSET 0 0 0
  CHANNELS 6 Xposition Yposition Zposition Zrotation Yrotation Xrotation
  JOINT abdomen
  {
    OFFSET 0 20.6881 -0.73152
    CHANNELS 3 Zrotation Xrotation Yrotation
    JOINT chest
    {
      OFFSET 0 11.7043 -0.48768
      CHANNELS 3 Zrotation Xrotation Yrotation
      JOINT neck
      {
        OFFSET 0 22.1894 -2.19456
        CHANNELS 3 Zrotation Xrotation Yrotation
        JOINT head
        {
          OFFSET -0.24384 7.07133 1.2192
          CHANNELS 3 Zrotation Xrotation Yrotation
          JOINT leftEye
          {
            OFFSET 4.14528 8.04674 8.04672
            CHANNELS 3 Zrotation Xrotation Yrotation
            End Site
            {
              OFFSET 1 0 0
            }
          }
          JOINT rightEye
          {
            OFFSET -3.6576 8.04674 8.04672
            CHANNELS 3 Zrotation Xrotation Yrotation
            End Site
            {
              OFFSET 1 0 0
            }
          }
        }
      }
      JOINT rCollar
      {
        OFFSET -2.68224 19.2634 -4.8768
        CHANNELS 3 Zrotation Xrotation Yrotation
        JOINT rShldr
        {
          OFFSET -8.77824 -1.95073 1.46304
          CHANNELS 3 Zrotation Xrotation Yrotation
          JOINT rForeArm
          {
            OFFSET -28.1742 -1.7115 0.48768
            CHANNELS 3 Zrotation Xrotation Yrotation
            JOINT rHand
            {
              OFFSET -22.5879 0.773209 7.07136
              CHANNELS 3 Zrotation Xrotation Yrotation
              JOINT rThumb1
              {
                OFFSET -1.2192 -0.487915 3.41376
                CHANNELS 3 Zrotation Xrotation Yrotation
                JOINT rThumb2
                {
                  OFFSET -3.37035 -0.52449 3.41376
                  CHANNELS 3 Zrotation Xrotation Yrotation
                  End Site
                  {
                    OFFSET -1.78271 -1.18214 1.43049
                  }
                }
              }
              JOINT rIndex1
              {
                OFFSET -7.75947 0.938293 5.60832
                CHANNELS 3 Zrotation Xrotation Yrotation
                JOINT rIndex2
                {
                  OFFSET -2.54057 -0.884171 1.56538
                  CHANNELS 3 Zrotation Xrotation Yrotation
                  End Site
                  {
                    OFFSET -1.62519 -0.234802 1.16502
                  }
                }
              }
              JOINT rMid1
              {
                OFFSET -8.24714 1.18213 3.41376
                CHANNELS 3 Zrotation Xrotation Yrotation
                JOINT rMid2
                {
                  OFFSET -3.10165 -0.590103 1.0647
                  CHANNELS 3 Zrotation Xrotation Yrotation
                  End Site
                  {
                    OFFSET -2.48547 -0.328903 0.83742
                  }
                }
              }
              JOINT rRing1
              {
                OFFSET -8.82822 0.546677 1.51678
                CHANNELS 3 Zrotation Xrotation Yrotation
                JOINT rRing2
                {
                  OFFSET -2.60934 -0.819778 -0.0198488
                  CHANNELS 3 Zrotation Xrotation Yrotation
                  End Site
                  {
                    OFFSET -2.33842 -0.294052 0.168128
                  }
                }
              }
              JOINT rPinky1
              {
                OFFSET -8.27202 -0.0477905 -0.4584
                CHANNELS 3 Zrotation Xrotation Yrotation
                JOINT rPinky2
                {
                  OFFSET -1.82734 -0.647385 -0.700984
                  CHANNELS 3 Zrotation Xrotation Yrotation
                  End Site
                  {
                    OFFSET -1.69225 -0.51767 -0.607171
                  }
                }
              }
            }
          }
        }
      }
      JOINT lCollar
      {
        OFFSET 2.68224 19.2634 -4.8768
        CHANNELS 3 Zrotation Xrotation Yrotation
        JOINT lShldr
        {
          OFFSET 8.77824 -1.95073 1.46304
          CHANNELS 3 Zrotation Xrotation Yrotation
          JOINT lForeArm
          {
            OFFSET 28.1742 -1.7115 0.48768
            CHANNELS 3 Zrotation Xrotation Yrotation
            JOINT lHand
            {
              OFFSET 22.5879 0.773209 7.07136
              CHANNELS 3 Zrotation Xrotation Yrotation
              JOINT lThumb1
              {
                OFFSET 1.2192 -0.487915 3.41376
                CHANNELS 3 Zrotation Xrotation Yrotation
                JOINT lThumb2
                {
                  OFFSET 3.37035 -0.52449 3.41376
                  CHANNELS 3 Zrotation Xrotation Yrotation
                  End Site
                  {
                    OFFSET 1.78271 -1.18214 1.43049
                  }
                }
              }
              JOINT lIndex1
              {
                OFFSET 7.75947 0.938293 5.60832
                CHANNELS 3 Zrotation Xrotation Yrotation
                JOINT lIndex2
                {
                  OFFSET 2.54057 -0.884171 1.56538
                  CHANNELS 3 Zrotation Xrotation Yrotation
                  End Site
                  {
                    OFFSET 1.62519 -0.234802 1.16502
                  }
                }
              }
              JOINT lMid1
              {
                OFFSET 8.24714 1.18213 3.41376
                CHANNELS 3 Zrotation Xrotation Yrotation
                JOINT lMid2
                {
                  OFFSET 3.10165 -0.590103 1.0647
                  CHANNELS 3 Zrotation Xrotation Yrotation
                  End Site
                  {
                    OFFSET 2.48547 -0.328903 0.83742
                  }
                }
              }
              JOINT lRing1
              {
                OFFSET 8.82822 0.546677 1.51678
                CHANNELS 3 Zrotation Xrotation Yrotation
                JOINT lRing2
                {
                  OFFSET 2.60934 -0.819778 -0.0198488
                  CHANNELS 3 Zrotation Xrotation Yrotation
                  End Site
                  {
                    OFFSET 2.33842 -0.294052 0.168128
                  }
                }
              }
              JOINT lPinky1
              {
                OFFSET 8.27202 -0.0477905 -0.4584
                CHANNELS 3 Zrotation Xrotation Yrotation
                JOINT lPinky2
                {
                  OFFSET 1.82734 -0.647385 -0.700984
                  CHANNELS 3 Zrotation Xrotation Yrotation
                  End Site
                  {
                    OFFSET 1.69225 -0.51767 -0.607171
                  }
                }
              }
            }
          }
        }
      }
    }
  }
  JOINT rButtock
  {
    OFFSET -8.77824 4.35084 1.2192
    CHANNELS 3 Zrotation Xrotation Yrotation
    JOINT rThigh
    {
      OFFSET 0 -1.70687 -2.19456
      CHANNELS 3 Zrotation Xrotation Yrotation
      JOINT rShin
      {
        OFFSET 0 -36.8199 0.73152
        CHANNELS 3 Zrotation Xrotation Yrotation
        JOINT rFoot
        {
          OFFSET 0.73152 -45.1104 -5.12064
          CHANNELS 3 Zrotation Xrotation Yrotation
          End Site
          {
            OFFSET -1.1221 -3.69964 12.103
          }
        }
      }
    }
  }
  JOINT lButtock
  {
    OFFSET 8.77824 4.35084 1.2192
    CHANNELS 3 Zrotation Xrotation Yrotation
    JOINT lThigh
    {
      OFFSET 0 -1.70687 -2.19456
      CHANNELS 3 Zrotation Xrotation Yrotation
      JOINT lShin
      {
        OFFSET 0 -36.8199 0.73152
        CHANNELS 3 Zrotation Xrotation Yrotation
        JOINT lFoot
        {
          OFFSET -0.73152 -45.1104 -5.12064
          CHANNELS 3 Zrotation Xrotation Yrotation
          End Site
          {
            OFFSET 1.1221 -3.69964 12.103
          }
        }
      }
    }
  }
}
MOTION
Frames:	4
Frame Time:	0.00833333
8.70879 84.9173 -152.907 0.0 0.0 0.0 -0.140626 -0.000295012 -0.00400527 -0.038767 -0.000394543 -0.00671565 2.12911e-15 7.95139e-16 -1.2424e-17 6.40149e-15 3.18055e-15 -3.10601e-17 -0.0 0.0 0.0 -0.0 0.0 0.0 1.19142e-15 -5.82377e-19 1.49089e-16 2.42335e-14 -1.92573e-16 9.93923e-16 3.8599e-13 -1.17681e-13 -2.8625e-14 4.40519e-12 1.06226e-13 0.0 1.03904e-11 -2.42721e-14 -4.45278e-14 1.79359e-11 -4.45278e-14 -8.82604e-14 1.03964e-11 -2.38542e-14 -5.40694e-14 7.73091 5.47488 0.417314 1.03895e-11 -2.43511e-14 -4.77083e-14 2.90554 0.965183 0.102902 1.03947e-11 -2.43511e-14 -5.00937e-14 10.2786 0.731801 0.0259123 1.03847e-11 -2.26615e-14 -4.45278e-14 2.22167 -0.733487 -0.20892 9.95283e-16 0.0 -1.49089e-16 2.03092e-14 -9.93923e-17 -9.93923e-16 3.82909e-13 1.12313e-13 2.54444e-14 4.40718e-12 -1.23743e-13 -3.49861e-14 1.03921e-11 -2.22897e-14 -5.08889e-14 1.79554e-11 -3.81667e-14 -8.34896e-14 1.03873e-11 -2.06736e-14 -3.81667e-14 -7.73091 5.47488 -0.417314 1.03923e-11 -2.28602e-14 -5.40694e-14 -2.90554 0.965183 -0.102902 1.03863e-11 -2.23633e-14 -4.92986e-14 -10.2786 0.731801 -0.0259123 1.03978e-11 -1.98785e-14 -5.40694e-14 -2.22167 -0.733487 0.20892 -2.03217e-16 0.0 -3.88251e-19 0.415459 -2.89234 -0.0363696 -0.00657584 -0.313962 -0.0578458 -0.521692 3.20536 0.125419 2.03217e-16 0.0 3.88251e-19 -0.629345 -3.43714 0.0497309 0.00497784 0.672916 0.0432301 0.523136 2.76331 -0.11651
8.54652 83.1012 -153.118 -0.8974 5.1898 -1.9504 -1.48442 2.86144 -3.34011 3.01932 -0.851935 -0.967782 2.51602 -1.46558 2.04503 -6.17855 5.85529 4.21727 -0.0 0.0 0.0 -0.0 0.0 0.0 1.02711e-14 -7.0937e-15 -4.65032e-14 17.0119 8.65453 -1.37457 -5.91518 -3.14138 8.69299 0.0112052 -2.34841 -0.329047 2.76826e-11 -2.49e-10 -1.83124e-10 4.93698e-11 -4.32795e-10 -3.17048e-10 2.76895e-11 -2.49001e-10 -1.83136e-10 7.73091 5.47488 0.417314 2.76822e-11 -2.49002e-10 -1.83125e-10 2.90554 0.965183 0.102902 2.76887e-11 -2.49002e-10 -1.83128e-10 10.2786 0.731801 0.0259123 2.76781e-11 -2.48999e-10 -1.83123e-10 2.22167 -0.733487 -0.20892 1.00693e-14 -7.09539e-15 -4.67458e-14 -23.9105 1.76859 0.658009 4.48387 -2.09269 -6.94237 -0.00170006 -0.917301 0.128859 1.44415e-10 8.23458e-10 -4.76255e-10 2.51392e-10 1.42796e-09 -8.24912e-10 1.4441e-10 8.23457e-10 -4.76243e-10 -7.73091 5.47488 -0.417314 1.44415e-10 8.23456e-10 -4.76258e-10 -2.90554 0.965183 -0.102902 1.44408e-10 8.23457e-10 -4.76254e-10 -10.2786 0.731801 -0.0259123 1.44421e-10 8.2346e-10 -4.7626e-10 -2.22167 -0.733487 0.20892 -2.03217e-16 0.0 -3.88251e-19 -3.28462 -10.8857 -2.25527 -0.0499675 20.082 0.20592 -0.551326 6.82489 -1.05266 2.03217e-16 0.0 3.88251e-19 -2.42326 -5.39996 0.664456 -0.0202412 8.25878 -0.057339 0.675935 -0.63719 2.99784
8.53444 83.0952 -153.121 -0.9348 5.1541 -1.9192 -2.54516 5.85496 -6.89395 6.21819 -1.75646 -1.98403 5.30396 -2.99183 4.20917 -13.6831 11.9623 8.82319 -0.0 0.0 0.0 -0.0 0.0 0.0 1.96556e-14 -1.60005e-14 -9.90693e-14 35.4795 17.7874 -2.95141 -11.1444 -6.22177 17.9662 -0.00637167 -4.82996 -0.678626 5.69824e-11 -5.45489e-10 -3.88367e-10 1.01722e-10 -9.48021e-10 -6.72349e-10 5.69903e-11 -5.45491e-10 -3.88383e-10 7.73091 5.47488 0.417314 5.69825e-11 -5.45494e-10 -3.88367e-10 2.90554 0.965183 0.102902 5.69905e-11 -5.45492e-10 -3.8837e-10 10.2786 0.731801 0.0259123 5.69793e-11 -5.45489e-10 -3.88365e-10 2.22167 -0.733487 -0.20892 1.94442e-14 -1.60049e-14 -9.92526e-14 -49.2251 3.64775 1.36542 8.68223 -4.20648 -14.3192 0.00100645 -1.89509 0.266328 3.27183e-10 1.73306e-09 -9.88921e-10 5.69277e-10 3.00521e-09 -1.71285e-09 3.27178e-10 1.73306e-09 -9.88911e-10 -7.73091 5.47488 -0.417314 3.27183e-10 1.73306e-09 -9.88923e-10 -2.90554 0.965183 -0.102902 3.27175e-10 1.73306e-09 -9.88922e-10 -10.2786 0.731801 -0.0259123 3.27189e-10 1.73306e-09 -9.88929e-10 -2.22167 -0.733487 0.20892 -2.03217e-16 0.0 -3.88251e-19 -7.9047 -19.2828 -4.7837 -0.358766 41.6372 0.614069 -0.418088 10.6454 -2.32272 2.03217e-16 0.0 3.88251e-19 -4.27026 -7.47044 1.32194 -0.0169491 16.2763 -0.169123 1.23871 -4.20848 6.30212
8.54651 83.0866 -153.129 -0.9551 5.1414 -1.8646 -3.16858 8.46789 -10.1112 9.04975 -2.55213 -2.89247 7.86204 -4.3743 6.15106 -21.1999 17.1767 13.1836 -0.0 0.0 0.0 -0.0 0.0 0.0 2.84303e-14 -2.12799e-14 -1.39808e-13 52.3984 25.9003 -4.53288 -14.9692 -8.55803 26.3551 -0.0478251 -7.0443 -0.993814 6.2267e-11 -7.46952e-10 -5.49282e-10 1.12237e-10 -1.2983e-09 -9.50969e-10 6.22755e-11 -7.46955e-10 -5.493e-10 7.73091 5.47488 0.417314 6.22675e-11 -7.46958e-10 -5.4928e-10 2.90554 0.965183 0.102902 6.22766e-11 -7.46956e-10 -5.49284e-10 10.2786 0.731801 0.0259123 6.2265e-11 -7.46952e-10 -5.49279e-10 2.22167 -0.733487 -0.20892 2.82174e-14 -2.12862e-14 -1.39939e-13 -71.8539 5.30297 1.98157 11.9607 -5.91017 -20.9296 0.00729004 -2.75185 0.386974 4.12461e-10 2.47042e-09 -1.42866e-09 7.18265e-10 4.28397e-09 -2.47457e-09 4.12457e-10 2.47041e-09 -1.42865e-09 -7.73091 5.47488 -0.417314 4.12462e-10 2.47041e-09 -1.42866e-09 -2.90554 0.965183 -0.102902 4.12452e-10 2.47041e-09 -1.42866e-09 -10.2786 0.731801 -0.0259123 4.12468e-10 2.47042e-09 -1.42867e-09 -2.22167 -0.733487 0.20892 -2.03217e-16 0.0 -3.88251e-19 -12.7325 -26.7064 -7.3602 -1.17399 60.8668 1.42951 -0.15203 14.0423 -3.49048 2.03217e-16 0.0 3.88251e-19 -5.88317 -9.32159 1.91048 0.0148365 23.4303 -0.279755 2.09218 -7.34404 9.30271
